#!OML:ASF C:\ViconDB\ViconDB\414\Spring2016\041811\Spring2016.ASF
:FULLY-SPECIFIED
:DEGREES
200
root 7.86701 17.1618 -17.3728 -176.342 -10.0854 173.794
lowerback 7.8273 -0.621742 -7.59161
upperback 1.6787 -1.8168 -2.94062
thorax -2.52216 -0.981261 1.38929
lowerneck -11.7964 -3.54629 -14.8125
upperneck 17.5551 -6.92351 19.7576
head 8.57714 -2.93958 8.5825
rclavicle 3.926e-014 1.51076e-014
rhumerus -59.4483 -4.05433 -89.0114
rradius 78.662
rwrist 14.5358
rhand -35.5768 -13.1642
rfingers 7.12502
rthumb -8.70142 -42.9649
lclavicle 3.926e-014 1.51076e-014
lhumerus -40.0811 -23.7537 100.052
lradius 85.4524
lwrist -21.8581
lhand -34.8542 9.58533
lfingers 7.12502
lthumb -8.00405 39.4138
rfemur -37.2175 -21.9013 10.4646
rtibia 104.526
rfoot -163.101 1.22125
rtoes -9.37456
lfemur -13.869 0.259663 -26.2619
ltibia 47.0111
lfoot -28.1979 -7.59178
ltoes -13.4452
201
root 7.84023 17.175 -17.8334 -176.222 -10.6328 173.686
lowerback 7.85702 -1.06578 -7.65093
upperback 1.53837 -2.40265 -2.815
thorax -2.63015 -1.25719 1.60931
lowerneck -11.8946 -3.4953 -14.9583
upperneck 17.745 -6.79821 19.6049
head 8.6316 -2.89396 8.57604
rclavicle 2.68359e-014 7.07673e-014
rhumerus -61.7758 -3.04038 -89.3419
rradius 79.3516
rwrist 14.1941
rhand -35.3788 -12.6627
rfingers 7.12502
rthumb -8.51038 -42.4712
lclavicle 2.68359e-014 7.07673e-014
lhumerus -38.5278 -24.5042 100.48
lradius 87.7733
lwrist -23.8907
lhand -34.8786 10.2751
lfingers 7.12502
lthumb -8.02758 40.1027
rfemur -39.9055 -21.94 11.3723
rtibia 103.225
rfoot -163.461 1.553
rtoes -8.50024
lfemur -11.6005 -0.692783 -26.2662
ltibia 45.9322
lfoot -28.3639 -7.06065
ltoes -14.552
202
root 7.82264 17.2094 -18.3077 -176.053 -11.2109 174.095
lowerback 7.74114 -1.50426 -7.22134
upperback 1.31962 -2.89722 -2.49154
thorax -2.75407 -1.47774 1.7512
lowerneck -11.9226 -3.44061 -15.4435
upperneck 17.8589 -6.68179 19.8082
head 8.67395 -2.85695 8.76629
rclavicle 9.93923e-015 3.37934e-014
rhumerus -64.2217 -2.01882 -89.661
rradius 80.3774
rwrist 13.9451
rhand -35.1979 -11.9343
rfingers 7.12502
rthumb -8.33575 -41.7498
lclavicle 9.93923e-015 3.37934e-014
lhumerus -37.288 -25.668 101.026
lradius 90.3585
lwrist -25.1447
lhand -35.4521 9.61042
lfingers 7.12502
lthumb -8.5811 39.416
rfemur -42.3619 -21.5201 13.0839
rtibia 101.164
rfoot -164.194 1.63946
rtoes -8.42725
lfemur -9.45488 -1.86278 -25.6255
ltibia 44.7416
lfoot -28.013 -6.84899
ltoes -16.2402
203
root 7.8001 17.2556 -18.7928 -175.807 -11.7398 174.344
lowerback 7.55678 -2.06266 -7.05316
upperback 0.92152 -3.57852 -2.1877
thorax -2.99865 -1.7817 2.03426
lowerneck -11.6886 -3.15869 -15.3325
upperneck 18.1296 -6.28971 19.395
head 8.61646 -2.71044 8.64488
rclavicle 2.13694e-014 7.55382e-015
rhumerus -66.7977 -0.740336 -90.3888
rradius 81.5052
rwrist 12.8523
rhand -34.7189 -11.6521
rfingers 7.12502
rthumb -7.8735 -41.4855
lclavicle 2.13694e-014 7.55382e-015
lhumerus -36.7073 -26.675 101.481
lradius 93.3421
lwrist -25.6313
lhand -36.4369 10.186
lfingers 7.12502
lthumb -9.53137 39.9504
rfemur -44.4649 -21.0364 14.4332
rtibia 98.4341
rfoot -164.884 1.68825
rtoes -8.34454
lfemur -7.23209 -3.26335 -25.2498
ltibia 43.3192
lfoot -27.1701 -6.09468
ltoes -16.5874
204
root 7.78531 17.3186 -19.2974 -175.706 -12.0032 174.506
lowerback 7.41357 -2.46689 -7.05089
upperback 0.546262 -4.08018 -1.8942
thorax -3.24432 -1.99858 2.38317
lowerneck -11.586 -2.94287 -15.3692
upperneck 18.6217 -6.03827 19.1417
head 8.6981 -2.63135 8.60714
rclavicle 4.22417e-015 1.86858e-014
rhumerus -69.4392 0.404783 -91.0926
rradius 82.7389
rwrist 11.9938
rhand -33.0897 -12.3532
rfingers 7.12502
rthumb -6.30078 -42.2395
lclavicle 4.22417e-015 1.86858e-014
lhumerus -36.5432 -28.0997 102.007
lradius 96.4232
lwrist -25.4786
lhand -37.0387 10.5043
lfingers 7.12502
lthumb -10.112 40.2413
rfemur -45.8994 -20.1614 15.6728
rtibia 94.8702
rfoot -165.742 1.55136
rtoes -8.2025
lfemur -4.70843 -4.37621 -24.9364
ltibia 41.6341
lfoot -25.8116 -5.71279
ltoes -18.1834
205
root 7.77247 17.4113 -19.8197 -175.557 -12.1746 174.937
lowerback 7.07722 -2.82627 -6.73921
upperback 0.144983 -4.4732 -1.53183
thorax -3.43091 -2.16526 2.61149
lowerneck -11.4167 -2.72964 -15.314
upperneck 19.0961 -5.77754 18.7447
head 8.7537 -2.55562 8.4962
rclavicle 5.26282e-014 5.00937e-014
rhumerus -71.9889 1.01573 -91.4953
rradius 83.9374
rwrist 11.623
rhand -32.7651 -12.2934
rfingers 7.12502
rthumb -5.98746 -42.1888
lclavicle 5.26282e-014 5.00937e-014
lhumerus -36.6167 -29.7513 102.499
lradius 99.3003
lwrist -25.0869
lhand -37.8145 10.9002
lfingers 7.12502
lthumb -10.8604 40.5994
rfemur -46.8443 -19.0093 17.1422
rtibia 90.5242
rfoot -166.828 1.08387
rtoes -8.21685
lfemur -2.20929 -5.50913 -24.3826
ltibia 39.7564
lfoot -24.0544 -5.10788
ltoes -20.346
206
root 7.75003 17.5288 -20.371 -175.189 -12.0868 175.456
lowerback 6.23238 -3.08965 -6.21387
upperback -0.341857 -4.68908 -1.17766
thorax -3.4533 -2.25411 2.66612
lowerneck -11.3451 -2.50237 -15.4002
upperneck 19.8167 -5.58244 18.5921
head 8.93555 -2.51362 8.51102
rclavicle 4.98204e-014 4.57205e-015
rhumerus -74.5443 1.31623 -91.6016
rradius 85.131
rwrist 11.1869
rhand -32.5483 -11.9172
rfingers 7.12502
rthumb -5.77812 -41.8184
lclavicle 4.98204e-014 4.57205e-015
lhumerus -37.2757 -31.4307 103.128
lradius 102.13
lwrist -24.5865
lhand -38.5592 11.1435
lfingers 7.12502
lthumb -11.5786 40.8036
rfemur -47.4021 -17.7179 18.5879
rtibia 85.4221
rfoot -168.302 0.454951
rtoes -7.87409
lfemur 0.134686 -6.37958 -23.7629
ltibia 37.7422
lfoot -21.86 -4.62362
ltoes -21.9062
207
root 7.75181 17.6293 -20.8984 -175.153 -11.6957 175.801
lowerback 6.18339 -3.20472 -6.32138
upperback -0.874125 -4.83193 -0.740963
thorax -3.92128 -2.28225 3.20469
lowerneck -11.2289 -2.27296 -15.2696
upperneck 20.5844 -5.34904 18.0755
head 9.10414 -2.46955 8.35067
rclavicle 3.90115e-014 -1.35174e-014
rhumerus -77.0145 1.03673 -91.1448
rradius 86.4977
rwrist 11.9053
rhand -31.1597 -11.4336
rfingers 7.12502
rthumb -4.43734 -41.3671
lclavicle 3.90115e-014 -1.35174e-014
lhumerus -38.4013 -33.1099 103.731
lradius 104.828
lwrist -24.2914
lhand -39.4151 11.3468
lfingers 7.12502
lthumb -12.4039 40.9588
rfemur -47.5285 -16.0407 19.7342
rtibia 80.0146
rfoot -170.005 -0.456582
rtoes -7.73401
lfemur 2.65057 -6.87547 -23.2504
ltibia 35.719
lfoot -18.9954 -4.32967
ltoes -23.4489
